<svg width="1295" height="1295" viewBox="0 0 1295 1295" fill="none" xmlns="http://www.w3.org/2000/svg">
<g clip-path="url(#clip0_6_573)">
<rect width="1295" height="1295" fill="white"/>
<rect x="-1" width="1296" height="1295" fill="black"/>
<path d="M561.208 610.945C562.11 608.18 558.924 605.916 556.61 607.669C544.118 617.125 521.379 628.355 486.197 624.919V519.154H231.171V599.264C217.548 610.534 207.2 622.575 200.388 631.551C189.829 645.475 179.952 659.99 169.754 674.185C166.478 678.743 163.183 683.291 159.877 687.829C158.635 689.532 157.272 691.125 156 692.778L176.275 706.592C182.206 687.799 188.557 669.036 200.057 652.858C201.439 650.914 203.042 649.662 205.517 649.322C207.34 649.081 209.173 649.702 210.836 650.484C217.878 653.82 224.61 657.486 231.181 661.513V774.2H486.217V692.217C494.522 686.216 502.456 679.635 509.979 672.592C523.542 659.88 535.804 645.795 546.763 630.789C548.095 628.966 562.28 611.706 561.228 610.965L561.208 610.945ZM246.789 534.781H470.57V622.545C448.822 618.107 423.067 608.31 392.894 590.238C330.996 553.164 281.379 565.485 246.789 587.794V534.781V534.781ZM470.57 758.563H246.789V671.991C255.554 678.252 264.149 684.754 272.874 691.075C283.633 698.858 294.602 706.401 306.223 712.843C317.562 719.124 329.573 724.373 342.236 727.298C345.992 728.169 349.799 728.831 353.635 729.261C364.414 730.463 375.253 730.744 386.072 730.013C416.485 727.939 445.005 717.942 470.58 702.535V758.563H470.57ZM467.835 685.254C467.004 685.815 466.142 686.346 465.261 686.837C441.359 699.95 419.771 710.799 394.667 713.344C355.889 717.29 333.771 709.898 307.505 694.891C294.482 687.448 282.581 678.302 270.66 669.246C268.356 667.493 266.052 665.75 263.738 664.027C256.566 658.668 249.283 653.439 241.66 648.721C239.546 647.418 222.486 636.66 218.579 634.836C218.259 634.686 218.209 634.285 218.459 634.035C221.525 630.929 235.589 616.665 238.194 614.381C267.325 588.816 307.415 576.154 345.501 586.752C366.849 592.693 386.142 606.757 405.636 616.835C424.129 626.392 443.783 633.724 464.079 638.443C483.913 643.051 503.608 643.281 522.21 637.842L522.661 638.713C488.872 671.4 490.284 669.968 467.855 685.234L467.835 685.254Z" fill="white"/>
<path d="M439.175 668.245C417.437 669.808 382.185 666.211 349.328 643.982C313.395 619.68 285.696 622.745 280.698 623.376C280.507 623.396 280.487 623.667 280.668 623.727C285.596 625.47 290.485 627.323 295.293 629.357C302.225 632.292 309.017 635.608 315.428 639.555C333.37 650.594 348.606 664.298 368.752 671.651C392.603 680.356 416.114 678.443 439.325 668.876C439.665 668.736 439.555 668.215 439.175 668.245Z" fill="white"/>
<path d="M658.118 586.722C654.812 587.924 650.905 588.826 647.299 588.826L678.403 630.298H658.118L621.454 578.758H621.153V630.298H604.925V519.104H639.335C649.853 519.104 661.123 520.757 668.937 528.42C675.999 535.182 679.155 545.099 679.155 554.716C679.155 569.742 672.543 581.613 658.118 586.722ZM638.283 533.98H621.153V576.504H632.273C646.698 576.504 662.926 572.447 662.926 554.716C662.926 540.591 651.206 533.98 638.283 533.98V533.98Z" fill="white"/>
<path d="M701.694 630.288V519.104H717.923V630.288H701.694Z" fill="white"/>
<path d="M775.914 533.98V630.288H759.686V533.98H738.349V519.104H797.252V533.98H775.914Z" fill="white"/>
<path d="M892.218 547.503C883.954 537.886 874.036 531.876 860.964 531.876C837.523 531.876 819.641 551.26 819.641 574.4C819.641 597.541 837.523 617.526 860.663 617.526C872.384 617.526 883.503 611.665 891.016 602.8H911.001C900.483 621.282 881.85 632.402 860.513 632.402C828.807 632.402 803.413 605.655 803.413 574.25C803.413 542.845 828.968 517 860.663 517C872.534 517 885.006 520.907 894.623 527.819C902.436 533.379 907.094 539.239 911.752 547.503H892.218Z" fill="white"/>
<path d="M992.293 630.288V581.904H946.463V630.288H930.234V519.104H946.463V567.038H992.293V519.104H1008.52V630.288H992.293Z" fill="white"/>
<path d="M1036.93 630.288V519.104H1053.16V630.288H1036.93Z" fill="white"/>
<path d="M1080.05 630.288V519.104H1140V533.98H1096.27V566.737H1140V581.613H1096.27V615.422H1140V630.298H1080.05V630.288Z" fill="white"/>
<path d="M682.01 771.234C674.497 774.69 666.082 776.644 657.818 776.644C625.962 776.644 600.868 750.949 600.868 719.243C600.868 687.538 625.511 661.242 657.667 661.242C678.554 661.242 697.637 672.963 707.555 691.295H688.622C680.357 681.978 671.041 676.118 658.269 676.118C634.828 676.118 617.097 696.404 617.097 719.243C617.097 742.083 635.429 761.768 658.419 761.768C676.15 761.768 690.425 750.498 696.736 734.119H644.895V719.243H715.218C714.918 742.083 703.047 761.618 682.01 771.234Z" fill="white"/>
<path d="M788.998 730.974C785.692 732.176 781.785 733.078 778.179 733.078L809.283 774.55H788.998L752.334 723.01H752.033V774.55H735.805V663.356H770.215C780.733 663.356 792.003 665.009 799.817 672.672C806.879 679.434 810.034 689.351 810.034 698.968C810.034 713.994 803.423 725.865 788.998 730.974V730.974ZM769.163 678.232H752.033V720.756H763.153C777.578 720.756 793.806 716.699 793.806 698.968C793.806 684.843 782.086 678.232 769.163 678.232Z" fill="white"/>
<path d="M885.616 776.654C853.76 776.654 827.765 750.809 827.765 718.953C827.765 687.097 853.61 661.252 885.616 661.252C917.622 661.252 943.467 686.947 943.467 719.253C943.467 751.56 917.321 776.654 885.616 776.654ZM885.616 676.128C868.336 676.128 854.662 685.444 847.9 701.222C845.496 706.782 843.993 712.792 843.993 718.953C843.993 725.114 845.496 731.274 847.9 736.984C854.812 752.612 868.486 761.778 885.616 761.778C903.948 761.778 918.072 751.259 924.384 734.28C926.187 729.622 927.239 724.513 927.239 719.404C927.239 695.812 909.808 676.128 885.616 676.128V676.128Z" fill="white"/>
<path d="M1025.65 767.187C1018.59 773.498 1009.12 776.654 999.655 776.654C990.188 776.654 980.722 773.498 973.659 767.187C965.395 759.824 962.39 749.456 962.39 738.637V663.356H978.618V738.187C978.618 751.41 985.831 761.778 999.655 761.778C1013.48 761.778 1020.69 751.41 1020.69 738.187V663.356H1036.92V738.637C1036.92 749.456 1033.91 759.824 1025.65 767.187V767.187Z" fill="white"/>
<path d="M1095.97 730.674H1080.05V774.55H1063.82V663.356H1095.97C1117.91 663.356 1135.19 673.273 1135.19 697.015C1135.19 720.756 1117.91 730.674 1095.97 730.674ZM1095.97 678.232H1080.05V715.798H1095.97C1108.3 715.798 1118.96 710.689 1118.96 697.015C1118.96 683.341 1108.3 678.232 1095.97 678.232Z" fill="white"/>
</g>
<defs>
<clipPath id="clip0_6_573">
<rect width="1295" height="1295" fill="white"/>
</clipPath>
</defs>
</svg>
